<svg width="140" height="70" viewBox="0 0 140 70" fill="none" xmlns="http://www.w3.org/2000/svg">
  <path d="M34.3324 69.0448C24.0379 53.7781 13.7214 38.4896 3.55823 23.3763C10.8958 15.9511 18.1678 8.56963 25.5273 1.10059C41.0348 23.7486 56.5205 46.3529 72.0719 69.0667H34.3324V69.0448Z" fill="#4CB5E7"/>
  <path d="M81.2933 69.0886H80.22C70.1007 53.8 59.9375 38.4677 49.6868 22.9382C57.4406 15.3816 65.1943 7.82493 73.0357 0.180664C81.819 13.4979 90.7774 27.078 99.7578 40.6799C99.8235 40.8114 99.8673 40.9428 99.933 41.0742C99.6483 41.2056 99.5388 41.4904 99.3855 41.7313C95.7057 47.3166 92.0478 52.8801 88.3681 58.4435C86.0244 62.0138 83.6589 65.5621 81.3152 69.1105" fill="#487EC0"/>
  <path d="M99.9113 41.0741C99.8456 40.9427 99.7799 40.8112 99.7361 40.6798C100.24 40.6798 100.349 40.2198 100.547 39.9132C106.219 31.3052 111.892 22.7191 117.565 14.133C117.653 13.9796 117.784 13.8482 118.003 13.5635C124.684 22.8724 131.299 32.0718 137.936 41.3369C131.781 50.6458 125.67 59.889 119.559 69.1322H118.332C118.332 68.6942 118.047 68.4094 117.85 68.0809C114.17 62.4955 110.491 56.9321 106.789 51.3467C104.511 47.9298 102.343 44.4253 99.9332 41.0741" fill="#90D5E1"/>
  <path d="M99.911 41.0742C102.342 44.4254 104.489 47.93 106.767 51.3469C110.468 56.9322 114.148 62.4957 117.828 68.081C118.047 68.4096 118.332 68.6943 118.31 69.1324C105.956 69.1324 93.6247 69.1105 81.2712 69.1105C83.6149 65.5622 85.9805 62.0138 88.3241 58.4436C92.0039 52.8801 95.6836 47.3167 99.3415 41.7313C99.4948 41.4904 99.5824 41.2056 99.8891 41.0742" fill="#32C0F0"/>
</svg>
